# AST/ASF file generated using VICON BodyLanguage
# -----------------------------------------------
:version 1.10
:name VICON
:units
  mass 1.0
  length 0.45
  angle deg
:documentation
   .ast/.asf automatically generated from VICON data using
   VICON BodyBuilder and BodyLanguage model FoxedUp or BRILLIANT.MOD
:root
   order TX TY TZ RX RY RZ
   axis XYZ
   position 0 0 0  
   orientation 0 0 0 
:bonedata
  begin
     id 1 
     name lhipjoint
     direction 0.62366 -0.717238 0.310833 
     length 2.53602 
     axis 0 0 0  XYZ
  end
  begin
     id 2 
     name lfemur
     direction 0.34202 -0.939693 0  
     length 7.40817  
     axis 0 0 20  XYZ
    dof rx ry rz
    limits (-160.0 20.0)
           (-70.0 70.0)
           (-60.0 70.0)
  end
  begin
     id 3 
     name ltibia
     direction 0.34202 -0.939693 0   
     length 7.7045   
     axis 0 0 20   XYZ
    dof rx
    limits (-10.0 170.0)
  end
  begin
     id 4 
     name lfoot
     direction 0.0673888 -0.185149 0.980397   
     length 2.09456   
     axis -90 7.62852e-016 20   XYZ
    dof rx rz
    limits (-45.0 90.0)
           (-70.0 20.0)
  end
  begin
     id 5 
     name ltoes
     direction 1.53575e-011 -4.21994e-011 1   
     length 1.05543   
     axis -90 7.62852e-016 20   XYZ
    dof rx
    limits (-90.0 20.0)
  end
  begin
     id 6 
     name rhipjoint
     direction -0.489018 -0.800347 0.346851   
     length 2.27268  
     axis 0 0 0  XYZ 
  end
  begin
     id 7 
     name rfemur
     direction -0.34202 -0.939693 0   
     length 7.55487   
     axis 0 0 -20   XYZ
    dof rx ry rz
    limits (-160.0 20.0)
           (-70.0 70.0)
           (-70.0 60.0)
  end
  begin
     id 8 
     name rtibia
     direction -0.34202 -0.939693 0   
     length 7.78969   
     axis 0 0 -20   XYZ
    dof rx
    limits (-10.0 170.0)
 end
 begin
     id 9 
     name rfoot
     direction -0.0859318 -0.236096 0.967923   
     length 2.19143  
     axis -90 -7.62852e-016 -20   XYZ
    dof rx rz
    limits (-45.0 90.0)
           (-20.0 70.0)
  end
  begin
     id 10 
     name rtoes
     direction -1.53538e-011 -4.21989e-011 1   
     length 1.09845   
     axis -90 -7.62852e-016 -20   XYZ
    dof rx
    limits (-90.0 20.0)
  end
  begin
     id 11 
     name lowerback
     direction -0.00762546 0.998978 -0.0445553   
     length 1.98161   
     axis 0 0 0   XYZ
    dof rx ry rz
    limits (-20.0 45.0)
           (-30.0 30.0)
           (-30.0 30.0)
  end
  begin
     id 12 
     name upperback
     direction 0.0422361 0.998867 -0.0219156   
     length 1.97558   
     axis 0 0 0   XYZ
    dof rx ry rz
    limits (-20.0 45.0)
           (-30.0 30.0)
           (-30.0 30.0)
  end
  begin
     id 13 
     name thorax
     direction 0.0442465 0.999021 7.47603e-005   
     length 1.97799   
     axis 0 0 0   XYZ
    dof rx ry rz
    limits (-20.0 45.0)
           (-30.0 30.0)
           (-30.0 30.0)
  end
  begin
     id 14 
     name lowerneck
     direction 0.00312169 0.984641 0.174564   
     length 1.78995   
     axis 0 0 0   XYZ
    dof rx ry rz
    limits (-20.0 45.0)
           (-30.0 30.0)
           (-30.0 30.0)
  end
  begin
     id 15 
     name upperneck
     direction -0.0383028 0.985255 -0.166749   
     length 1.83053   
     axis 0 0 0   XYZ
    dof rx ry rz
    limits (-20.0 45.0)
           (-30.0 30.0)
           (-30.0 30.0)
  end
  begin
     id 16
     name head
     direction -0.0129546 0.997059 -0.0755386  
     length 1.84088  
     axis 0 0 0   XYZ
    dof rx ry rz
    limits (-20.0 45.0)
           (-30.0 30.0)
           (-30.0 30.0)
  end
  begin
     id 17 
     name lclavicle
     direction 0.912857 0.370519 -0.171488  
     length 3.51279  
     axis 0 0 0   XYZ
    dof ry rz
    limits (-20.0 10.0)
           (0.0 20.0)
  end
  begin
     id 18 
     name lhumerus
     direction 1 -4.48962e-011 3.64361e-027   
     length 4.95663   
     axis 180 -30 -90   XYZ
    dof rx ry rz
    limits (-60.0 90.0)
           (-90.0 90.0)
           (-90.0 90.0)
  end
  begin
     id 19
     name lradius
     direction 1 -4.48974e-011 5.97202e-027   
     length 3.38177   
     axis 180 -30 -90   XYZ
    dof rx
    limits (-10.0 170.0)
  end
  begin
     id 20
     name lwrist
     direction 1 -4.4896e-011 9.83288e-027   
     length 1.69088   
     axis -9.31221e-015 90 90   XYZ
    dof ry
    limits (-180.0 0.0)
 end
  begin
     id 21 
     name lhand
     direction 1 -4.4902e-011 1.96551e-026   
     length 0.662909   
     axis -1.25475e-014 90 90   XYZ
    dof rx rz
    limits (-90.0 90.0)
           (-45.0 45.0)
  end
  begin
     id 22 
     name lfingers
     direction 1 -4.48971e-011 3.93277e-026   
     length 0.534454   
     axis -2.50945e-014 90 90   XYZ
    dof rx
    limits (0.0 90.0)
  end
  begin
     id 23
     name lthumb
     direction 0.707107 -6.34933e-011 0.707107   
     length 0.767373   
     axis -90 45 -4.80359e-014   XYZ
    dof rx rz
    limits (-45.0 45.0)
           (-45.0 45.0)
  end
  begin
     id 24 
     name rclavicle
     direction -0.900919 0.395364 -0.178976   
     length 3.40627  
     axis 0 0 0   XYZ 
    dof ry rz
    limits (-10.0 20.0)
           (-20.0 0.0)
  end
  begin
     id 25 
     name rhumerus
     direction -1 -4.48969e-011 1.03875e-027  
     length 5.08365   
     axis 180 30 90   XYZ
    dof rx ry rz
    limits (-90.0 60.0)
           (-90.0 90.0)
           (-90.0 90.0)
  end
  begin
     id 26 
     name rradius
     direction -1 -4.48951e-011 5.02733e-027   
     length 3.35984   
     axis 180 30 90   XYZ
    dof rx
    limits (-10.0 170.0)
  end
  begin
     id 27 
     name rwrist
     direction -1 -4.49011e-011 9.82828e-027   
     length 1.67992   
     axis -9.31221e-015 -90 -90   XYZ
    dof ry
    limits (-180.0 0.0)
  end
  begin
     id 28
     name rhand
     direction -1 -4.48894e-011 1.96774e-026   
     length 0.820764   
     axis -1.25475e-014 -90 -90   XYZ
    dof rx rz
    limits (-90.0 90.0)
           (-45.0 45.0)
  end
  begin
     id 29
     name rfingers
     direction -1 -4.49095e-011 3.92833e-026   
     length 0.661721   
     axis -2.50945e-014 -90 -90   XYZ
    dof rx
    limits (0.0 90.0)
  end
  begin
     id 30
     name rthumb
     direction -0.707107 -6.34881e-011 0.707107   
     length 0.950103   
     axis -90 -45 4.80359e-014   XYZ
    dof rx rz
    limits (-45.0 45.0)
           (-45.0 45.0)
  end
:hierarchy
  begin
    root lhipjoint rhipjoint lowerback
    lhipjoint lfemur
    lfemur ltibia
    ltibia lfoot
    lfoot ltoes
    rhipjoint rfemur
    rfemur rtibia
    rtibia rfoot
    rfoot rtoes
    lowerback upperback
    upperback thorax
    thorax lowerneck lclavicle rclavicle
    lowerneck upperneck
    upperneck head
    lclavicle lhumerus
    lhumerus lradius
    lradius lwrist
    lwrist lhand lthumb
    lhand lfingers
    rclavicle rhumerus
    rhumerus rradius
    rradius rwrist
    rwrist rhand rthumb
    rhand rfingers
  end

#!OML:ASF I:\golf\golf\golf 2\Subject 1\2002-09-07\Subject1.ASF
:FULLY-SPECIFIED
:DEGREES
129
root -0.312598 17.922 -3.53878 12.1353 4.1633 -1.38914
lowerback 4.31691 1.04996 -6.34546
upperback 5.90633 1.17811 5.19947
thorax 3.52603 0.219558 9.07688
lowerneck -14.2021 2.10724 -0.76916
upperneck 39.4715 7.86979 -10.2675
head 17.4203 1.79148 -3.062
rclavicle -7.95139e-016 -2.14687e-014
rhumerus -17.6756 9.78564 -82.132
rradius 30.2723
rwrist -14.7451
rhand -24.8948 13.5821
rfingers 7.12502
rthumb 1.61319 -16.3915
lclavicle -7.95139e-016 -2.14687e-014
lhumerus -30.3277 -35.7457 104.18
lradius 57.5516
lwrist 3.84829
lhand -19.1102 36.5667
lfingers 7.12502
lthumb 7.19882 66.4242
rfemur -23.6011 -7.20747 27.0412
rtibia 33.2461
rfoot -16.2495 -12.5838
rtoes 5.84941
lfemur -36.3497 5.56431 -15.4852
ltibia 48.3502
lfoot -10.1564 -9.31582
ltoes -17.3791
130
root -0.307351 17.9153 -3.55251 12.2332 4.21776 -1.45167
lowerback 4.6388 1.12981 -6.23105
upperback 6.07723 1.27145 5.21535
thorax 3.50773 0.26565 9.02179
lowerneck -14.199 2.01322 -0.846628
upperneck 39.189 7.70789 -10.2623
head 17.2404 1.72372 -3.05658
rclavicle -6.75868e-015 -2.46493e-014
rhumerus -17.2815 10.1502 -82.0683
rradius 30.4834
rwrist -14.7512
rhand -24.9546 13.4513
rfingers 7.12502
rthumb 1.55539 -16.5228
lclavicle -6.75868e-015 -2.46493e-014
lhumerus -30.1889 -35.9088 104.074
lradius 57.904
lwrist 3.35801
lhand -19.4949 36.3189
lfingers 7.12502
lthumb 6.82745 66.1888
rfemur -23.9192 -7.44777 27.145
rtibia 33.516
rfoot -16.3423 -12.378
rtoes 5.83008
lfemur -36.8255 5.38268 -15.2322
ltibia 48.3855
lfoot -10.4591 -8.90201
ltoes -17.0894
131
root -0.302453 17.907 -3.56782 12.384 4.21573 -1.50399
lowerback 4.99388 1.22407 -6.10849
upperback 6.1973 1.38442 5.1866
thorax 3.41377 0.328382 8.90959
lowerneck -14.2197 1.95018 -0.832591
upperneck 38.993 7.5807 -10.2637
head 17.124 1.67944 -3.07023
rclavicle 1.27222e-014 -7.95139e-015
rhumerus -16.9623 10.5834 -82.05
rradius 30.7764
rwrist -14.9086
rhand -24.8218 13.3391
rfingers 7.12502
rthumb 1.6837 -16.634
lclavicle 1.27222e-014 -7.95139e-015
lhumerus -30.1727 -36.1259 104.011
lradius 58.2471
lwrist 3.3961
lhand -19.245 36.6026
lfingers 7.12502
lthumb 7.06869 66.4646
rfemur -24.2995 -7.60802 27.2381
rtibia 33.7741
rfoot -16.4641 -12.1628
rtoes 6.42097
lfemur -37.343 5.24486 -14.9989
ltibia 48.3058
lfoot -10.8021 -8.37633
ltoes -16.6242
132
root -0.297741 17.9008 -3.58536 12.5139 4.1678 -1.53619
lowerback 5.43258 1.34985 -6.02005
upperback 6.32229 1.53587 5.14428
thorax 3.27137 0.411391 8.79851
lowerneck -14.3876 1.90462 -0.836173
upperneck 38.9437 7.48013 -10.1761
head 17.1231 1.6459 -3.04379
rclavicle 6.75868e-015 -2.06736e-014
rhumerus -16.6255 10.9738 -82.015
rradius 31.0931
rwrist -15.1197
rhand -24.9034 13.46
rfingers 7.12502
rthumb 1.6049 -16.5137
lclavicle 6.75868e-015 -2.06736e-014
lhumerus -30.1088 -36.216 103.915
lradius 58.5429
lwrist 2.96607
lhand -19.2693 36.4391
lfingers 7.12502
lthumb 7.04516 66.3019
rfemur -24.6639 -7.67587 27.2964
rtibia 34.0497
rfoot -16.5839 -11.9935
rtoes 7.03595
lfemur -37.8164 5.15072 -14.7872
ltibia 48.1098
lfoot -11.0211 -7.78527
ltoes -16.2819
133
root -0.290846 17.8937 -3.6038 12.6491 4.12572 -1.52638
lowerback 5.82354 1.45539 -5.98495
upperback 6.48084 1.66083 5.10638
thorax 3.19725 0.474486 8.72565
lowerneck -14.4882 1.85984 -0.852139
upperneck 38.7851 7.37522 -10.1146
head 17.0455 1.61047 -3.02139
rclavicle 1.94809e-014 4.37326e-014
rhumerus -16.2105 11.25 -81.9765
rradius 31.3241
rwrist -15.0648
rhand -25.3484 13.7324
rfingers 7.12502
rthumb 1.1751 -16.2441
lclavicle 1.94809e-014 4.37326e-014
lhumerus -29.9244 -36.0732 103.707
lradius 58.8496
lwrist 1.7807
lhand -20.2605 35.5473
lfingers 7.12502
lthumb 6.08836 65.4399
rfemur -25.0471 -7.71695 27.3004
rtibia 34.3495
rfoot -16.6395 -11.9672
rtoes 6.50599
lfemur -38.2482 5.00039 -14.6133
ltibia 47.7596
lfoot -11.1475 -7.1227
ltoes -15.9541
